<svg xmlns="http://www.w3.org/2000/svg" xmlns:xlink="http://www.w3.org/1999/xlink" width="1280" zoomAndPan="magnify" viewBox="0 0 960 959.999988" height="1280" preserveAspectRatio="xMidYMid meet" version="1.0"><path fill="#c60e1c" d="M 960.351562 480.175781 C 960.351562 663.800781 855.714844 831.382812 690.6875 911.867188 C 625.101562 943.78125 553.078125 960.351562 480.175781 960.351562 C 233.695312 960.351562 27.152344 773.730469 2.378906 528.484375 C 0.792969 512.617188 0 496.484375 0 480.175781 C 0 215.007812 215.007812 0 480.175781 0 C 745.34375 0 960.351562 215.007812 960.351562 480.175781 Z M 960.351562 480.175781 " fill-opacity="1" fill-rule="nonzero"/><path fill="#ef233c" d="M 865.851562 239.339844 C 865.851562 504.507812 650.929688 719.515625 385.761719 719.515625 C 235.109375 719.515625 93.089844 648.816406 2.378906 528.484375 C 0.792969 512.617188 0 496.484375 0 480.175781 C 0 215.007812 215.007812 0.0898438 480.175781 0.0898438 C 630.832031 0.0898438 772.761719 70.875 863.472656 191.117188 C 865.058594 206.984375 865.851562 223.03125 865.851562 239.339844 Z M 865.851562 239.339844 " fill-opacity="1" fill-rule="nonzero"/><path fill="#fdfffc" d="M 360.550781 594.425781 C 360.550781 595.128906 360.816406 595.746094 360.816406 596.363281 L 365.664062 719.074219 L 374.390625 939.636719 C 374.480469 942.632812 374.304688 945.628906 373.6875 948.539062 C 337.808594 940.339844 303.074219 928.089844 270.015625 911.957031 L 281.476562 708.144531 L 287.734375 595.835938 C 287.734375 595.835938 287.734375 595.21875 287.734375 594.953125 C 231.316406 573.179688 193.675781 500.453125 193.675781 413.796875 C 193.675781 310.039062 275.480469 225.9375 323.4375 225.9375 C 371.394531 225.9375 453.113281 310.039062 453.113281 413.796875 C 453.113281 499.746094 416.089844 572.03125 360.460938 594.425781 Z M 360.550781 594.425781 " fill-opacity="1" fill-rule="nonzero"/><path fill="#fdfffc" d="M 677.90625 594.425781 C 677.90625 595.128906 678.171875 595.746094 678.171875 596.363281 L 679.050781 619.460938 L 690.6875 911.867188 C 657.542969 928.089844 622.546875 940.339844 586.492188 948.453125 C 585.960938 945.367188 585.695312 942.191406 585.875 939.019531 L 601.035156 668.5625 L 605.089844 595.835938 C 605.089844 595.835938 605.179688 595.21875 605.179688 594.953125 C 548.761719 573.179688 511.117188 500.453125 511.117188 413.796875 C 511.117188 359.667969 533.421875 292.847656 561.628906 258.554688 C 564.714844 254.765625 570.269531 254.324219 574.0625 257.410156 C 576.089844 259.085938 577.234375 261.554688 577.234375 264.199219 L 577.234375 459.109375 C 577.234375 470.832031 586.753906 480.265625 598.390625 480.265625 C 599.007812 480.265625 599.625 480.265625 600.242188 480.265625 C 611.527344 478.765625 619.8125 469.070312 619.460938 457.695312 L 619.460938 244.011719 C 619.460938 235.371094 625.628906 227.96875 634.09375 226.554688 C 638.589844 225.851562 643.085938 225.851562 647.582031 226.554688 C 656.042969 227.96875 662.304688 235.371094 662.214844 244.011719 L 662.214844 459.195312 C 662.214844 470.921875 671.734375 480.351562 683.371094 480.351562 C 683.988281 480.351562 684.605469 480.351562 685.222656 480.351562 C 696.507812 478.855469 704.792969 469.15625 704.441406 457.785156 L 704.441406 264.375 C 704.441406 259.527344 708.230469 255.472656 713.167969 255.472656 C 715.902344 255.472656 718.457031 256.617188 720.132812 258.734375 C 748.253906 293.023438 770.554688 359.847656 770.554688 413.972656 C 770.554688 499.921875 733.53125 572.210938 677.90625 594.601562 Z M 677.90625 594.425781 " fill-opacity="1" fill-rule="nonzero"/></svg>